<?xml version="1.0" standalone="no"?><!DOCTYPE svg PUBLIC "-//W3C//DTD SVG 1.1//EN" "http://www.w3.org/Graphics/SVG/1.1/DTD/svg11.dtd"><svg t="1568268390641" class="icon" viewBox="0 0 1024 1024" version="1.1" xmlns="http://www.w3.org/2000/svg" p-id="7450" xmlns:xlink="http://www.w3.org/1999/xlink" width="200" height="200"><defs><style type="text/css"></style></defs><path d="M 25.3912 564.716 c -12.4172 0 -22.5199 -10.1028 -22.5199 -22.5139 c 0 -12.4196 10.1028 -22.5224 22.5199 -22.5224 h 307.185 c 12.4178 0 22.5199 10.1028 22.5199 22.5224 c 0 12.4105 -10.1022 22.5139 -22.5199 22.5139 H 25.3912 Z m 0 0 M 25.3912 235.695 c -12.4172 0 -22.5199 -10.0968 -22.5199 -22.5139 c 0 -12.419 10.1028 -22.5217 22.5199 -22.5217 h 303.164 c 12.419 0 22.523 10.1028 22.523 22.5217 c 0 12.4178 -10.1034 22.5139 -22.523 22.5139 H 25.3912 Z m 0 0 M 25.3912 952.872 c -12.4172 0 -22.5199 -10.104 -22.5199 -22.5224 c 0 -12.4178 10.1028 -22.5211 22.5199 -22.5211 H 998.93 c 12.4178 0 22.5199 10.1034 22.5199 22.5211 c 0 12.4184 -10.1022 22.5224 -22.5199 22.5224 H 25.3912 Z m 0 0 M 999.742 619.843 c -6.02976 0 -11.6917 -2.34568 -15.9429 -6.60956 l -135.56 -135.902 l -1.01991 0.836279 c -40.9434 33.6511 -90.7439 51.4321 -144.008 51.4321 c -60.8076 0 -117.981 -23.7307 -160.983 -66.8175 c -88.692 -88.9479 -88.692 -233.671 -0.006623 -322.613 c 43.0085 -43.1054 100.182 -66.8428 160.99 -66.8428 c 60.807 0 117.974 23.7373 160.964 66.8428 c 39.85 39.9536 63.373 93.0889 66.2317 149.628 c 2.84118 56.1222 -14.8068 110.986 -49.6969 154.484 l -0.811595 1.01329 l 135.786 136.129 c 4.25124 4.25726 6.58487 9.91554 6.57825 15.9303 c -0.012041 6.01652 -2.35772 11.667 -6.61438 15.9176 c -4.25305 4.2398 -9.9023 6.57283 -15.9062 6.57283 Z m -296.531 -501.473 c -48.7625 0 -94.611 19.04 -129.104 53.611 c -71.1982 71.3993 -71.1921 187.585 0.006623 258.99 c 34.4868 34.5596 80.3352 53.5929 129.098 53.5929 c 48.7559 0 94.5983 -19.0333 129.079 -53.5996 c 71.2222 -71.4053 71.2222 -187.584 -0.006021 -258.989 c -34.4807 -34.5656 -80.3166 -53.6056 -129.073 -53.6056 Z m 0 0" p-id="7451" fill="#707070"></path></svg>