<?xml version="1.0" standalone="no"?><!DOCTYPE svg PUBLIC "-//W3C//DTD SVG 1.1//EN" "http://www.w3.org/Graphics/SVG/1.1/DTD/svg11.dtd"><svg t="1568267649704" class="icon" viewBox="0 0 1024 1024" version="1.1" xmlns="http://www.w3.org/2000/svg" p-id="4874" xmlns:xlink="http://www.w3.org/1999/xlink" width="200" height="200"><defs><style type="text/css"></style></defs><path d="M339.66091 446.165596c12.724813 0 25.692149-5.370311 34.68701-14.366196 8.996908-8.995885 14.368242-21.966291 14.368242-34.694173 0-12.721743-5.371334-25.687032-14.367219-34.681894-8.998955-8.998955-21.966291-14.372336-34.688034-14.372336-12.719696 0-25.686009 5.372358-34.68394 14.370289-8.995885 9.001001-14.367219 21.967314-14.367219 34.68394 0 12.723789 5.371334 25.694195 14.368242 34.69622C313.972854 440.794261 326.938144 446.165596 339.66091 446.165596z" p-id="4875" fill="#707070"></path><path d="M684.333974 446.165596c12.723789 0 25.693172-5.371334 34.695197-14.368242 8.992815-8.997931 14.365172-21.968337 14.365172-34.692127 0-12.716626-5.372358-25.682939-14.369266-34.68394-9.001001-8.996908-21.970384-14.370289-34.692127-14.370289-12.718673 0-25.684986 5.372358-34.682917 14.371312-8.998955 8.998955-14.372336 21.964244-14.372336 34.682917 0 12.720719 5.373381 25.691125 14.373359 34.695197C658.646941 440.794261 671.612231 446.165596 684.333974 446.165596z" p-id="4876" fill="#707070"></path><path d="M733.269499 565.928237l-0.568958-0.188288-0.537236-0.26606c-3.370771-1.674129-7.7935-1.674129-11.82942 0-5.082762 2.109034-8.973372 6.52153-10.9504 12.423961-5.889127 17.866926-17.531282 41.206494-29.646204 59.424414-34.580586 51.921533-98.888218 84.173075-167.82938 84.173075-66.470901 0-126.326127-30.902824-173.096337-89.366354l-0.440022-0.603751-0.406253-0.61296c-11.370978-17.141402-23.12365-34.860972-29.181623-58.494229-4.143367-7.899924-11.462053-16.056698-23.336498-12.479219-7.827269 4.27128-16.496719 16.743336-12.713556 29.313629 2.850931 5.680373 5.635347 11.573593 8.577353 17.799388 8.931416 18.897396 18.165732 38.437427 30.589692 54.961776l0.077771 0.104377c44.193525 60.715827 122.70567 99.94734 200.020546 99.94734 78.226642 0 156.122757-39.986713 193.83466-99.501178l0.38067-0.550539c16.369829-21.772886 33.29736-44.287669 38.740326-71.251787l0.216941-1.078565 0.48914-0.986467c1.686409-3.400446 1.677199-7.860015-0.023536-11.927657C743.518934 571.70787 739.127927 567.858192 733.269499 565.928237z" p-id="4877" fill="#707070"></path><path d="M512 61.562101c-244.161882 0-450.437899 206.274994-450.437899 450.437899 0 244.162906 206.274994 450.437899 450.437899 450.437899 244.162906 0 450.437899-206.274994 450.437899-450.437899C962.437899 267.837094 756.162906 61.562101 512 61.562101zM799.323914 799.323914c-76.532047 76.532047-178.573071 118.681006-287.324938 118.681006s-210.790844-42.147936-287.321868-118.681006c-76.531024-76.532047-118.677936-178.573071-118.677936-287.324938 0-108.751866 42.146912-210.791867 118.677936-287.324938C301.209156 148.143015 403.248134 105.994056 512 105.994056s210.791867 42.147936 287.324938 118.681006 118.681006 178.573071 118.681006 287.324938S875.856985 722.791867 799.323914 799.323914z" p-id="4878" fill="#707070"></path></svg>